<svg width="994" height="994" viewBox="0 0 994 994" fill="none" xmlns="http://www.w3.org/2000/svg">
<path fill-rule="evenodd" clip-rule="evenodd" d="M482.501 124.599C384.269 130.117 300.55 166.768 233.586 233.57C102.659 364.181 87.7625 572.546 198.794 720.257C348.304 919.159 645.698 919.159 795.208 720.257C925.91 546.377 879.203 296.69 694.312 180.882C632.461 142.141 551.795 120.706 482.501 124.599ZM480.409 249.013C348.714 260.137 250.821 363.134 248.512 493C247.695 538.989 252.853 573.458 270.511 640C278.165 668.844 281.893 688.683 283.102 706.996C284.751 731.986 286.675 737.255 295.848 741.913C316.127 752.212 358.936 739.755 384.037 716.251L391.778 709.002L403.14 716.645C435.547 738.446 459.324 744.74 505.391 743.712C530.346 743.156 541.338 741.814 560.001 737.047C692.954 703.089 771.543 569.718 737.981 435C708.732 317.592 599.792 238.929 480.409 249.013ZM479.636 372.1C425.514 380.004 385.606 422.79 374.798 484.5C371.518 503.229 371.53 545.564 374.821 566.699C380.344 602.172 390.103 625.414 398.641 623.428C404.494 622.068 415.773 614.373 425.44 605.147L430.866 599.969L434.683 602.58C468.726 625.866 517.876 627.789 556.001 607.327C630.28 567.461 646.19 471.945 588.79 410.481C562.034 381.831 518.301 366.454 479.636 372.1Z" fill="#102A83"/>
</svg>
