<!DOCTYPE svg PUBLIC "-//W3C//DTD SVG 1.1//EN" "http://www.w3.org/Graphics/SVG/1.1/DTD/svg11.dtd">
<svg xmlns="http://www.w3.org/2000/svg" viewBox="0 0 994 994">
<path d="M482.5 124.599c-98.232 5.518-181.951 42.169-248.915 108.971-130.927 130.611-145.823 338.976-34.792 486.687 149.51 198.902 446.904 198.902 596.414 0 130.702-173.88 83.995-423.567-100.896-539.375-61.851-38.741-142.517-60.176-211.811-56.283m-2.092 124.414C348.713 260.137 250.82 363.134 248.511 493c-.817 45.989 4.341 80.458 21.999 147 7.654 28.844 11.382 48.683 12.591 66.996 1.649 24.99 3.573 30.259 12.746 34.917 20.279 10.299 63.088-2.158 88.189-25.662l7.741-7.249 11.362 7.643c32.407 21.801 56.184 28.095 102.251 27.067 24.955-.556 35.947-1.898 54.61-6.665C692.953 703.089 771.542 569.718 737.98 435c-29.249-117.408-138.189-196.071-257.572-185.987m-.773 123.087c-54.122 7.904-94.03 50.69-104.838 112.4-3.28 18.729-3.268 61.064.023 82.199 5.523 35.473 15.282 58.715 23.82 56.729 5.853-1.36 17.132-9.055 26.799-18.281l5.426-5.178 3.817 2.611c34.043 23.286 83.193 25.209 121.318 4.747 74.279-39.866 90.189-135.382 32.789-196.846-26.756-28.65-70.489-44.027-109.154-38.381" fill-rule="evenodd"/>
</svg>