<svg width="34" height="50" viewBox="0 0 34 50" fill="none" xmlns="http://www.w3.org/2000/svg">
<path d="M33.65 50H0.89V42.79L17.62 25.57C21.3533 21.6033 23.22 18.3367 23.22 15.77C23.22 13.8567 22.6133 12.3167 21.4 11.15C20.2333 9.98333 18.7167 9.4 16.85 9.4C13.1167 9.4 10.3867 11.3133 8.66 15.14L0.54 10.38C2.03333 7.06666 4.20333 4.52333 7.05 2.75C9.94333 0.929998 13.1633 0.0199968 16.71 0.0199968C21.1433 0.0199968 24.9467 1.42 28.12 4.22C31.2933 6.97333 32.88 10.7067 32.88 15.42C32.88 20.5067 30.1967 25.7333 24.83 31.1L15.24 40.69H33.65V50Z" fill="#102A83"/>
</svg>
