<svg width="35" height="50" viewBox="0 0 35 50" fill="none" xmlns="http://www.w3.org/2000/svg">
<path d="M32.88 7.98L23.71 19.88C27.1167 20.86 29.8233 22.5867 31.83 25.06C33.8833 27.5333 34.91 30.4733 34.91 33.88C34.91 38.92 33.2067 42.8633 29.8 45.71C26.4867 48.5567 22.3567 49.98 17.41 49.98C13.5367 49.98 10.1067 49.0933 7.12 47.32C4.13333 45.5 1.96333 42.9333 0.61 39.62L8.87 34.86C10.0367 38.64 12.8833 40.53 17.41 40.53C19.8833 40.53 21.7967 39.9467 23.15 38.78C24.55 37.5667 25.25 35.9333 25.25 33.88C25.25 31.8733 24.55 30.2633 23.15 29.05C21.7967 27.8367 19.8833 27.23 17.41 27.23H15.31L11.6 21.63L21.26 9.03H2.08V-3.33786e-06H32.88V7.98Z" fill="#102A83"/>
</svg>
