<svg width="36" height="50" viewBox="0 0 36 50" fill="none" xmlns="http://www.w3.org/2000/svg">
<path d="M13.56 17.85H18.6C23.36 17.85 27.3267 19.2733 30.5 22.12C33.72 24.92 35.33 28.84 35.33 33.88C35.33 38.92 33.6267 42.8633 30.22 45.71C26.9067 48.5567 22.7767 49.98 17.83 49.98C13.8167 49.98 10.2933 49.0933 7.26 47.32C4.27333 45.5 2.10333 42.8867 0.75 39.48L9.01 34.65C10.1767 38.57 13.1167 40.53 17.83 40.53C20.3033 40.53 22.2167 39.9467 23.57 38.78C24.97 37.5667 25.67 35.9333 25.67 33.88C25.67 31.8733 24.9933 30.2633 23.64 29.05C22.2867 27.8367 20.4433 27.23 18.11 27.23H3.27L5.23 -3.33786e-06H33.02V9.03H14.19L13.56 17.85Z" fill="#102A83"/>
</svg>
