<svg width="37" height="50" viewBox="0 0 37 50" fill="none" xmlns="http://www.w3.org/2000/svg">
<path d="M29.8 -3.33786e-06L18.95 15.89C24.0367 16.03 28.1667 17.6867 31.34 20.86C34.5133 24.0333 36.1 28.0467 36.1 32.9C36.1 37.8933 34.4433 42 31.13 45.22C27.8167 48.3933 23.5467 49.98 18.32 49.98C13.0933 49.98 8.82333 48.3933 5.51 45.22C2.24333 42.0933 0.61 37.9867 0.61 32.9C0.61 29.2133 1.56667 25.9233 3.48 23.03L18.74 -3.33786e-06H29.8ZM26.51 32.9C26.51 30.5667 25.74 28.6767 24.2 27.23C22.66 25.7367 20.7 24.99 18.32 24.99C15.94 24.99 13.98 25.7133 12.44 27.16C10.9467 28.6067 10.2 30.52 10.2 32.9C10.2 35.28 10.9467 37.2167 12.44 38.71C13.98 40.1567 15.94 40.88 18.32 40.88C20.7 40.88 22.66 40.1567 24.2 38.71C25.74 37.2167 26.51 35.28 26.51 32.9Z" fill="#102A83"/>
</svg>
